<svg id="visual" viewBox="0 0 960 540" width="960" height="540" xmlns="http://www.w3.org/2000/svg" xmlns:xlink="http://www.w3.org/1999/xlink" version="1.1"><rect x="0" y="0" width="960" height="540" fill="#931C1C"></rect><path d="M0 190L96 173L192 218L288 198L384 243L480 261L576 257L672 214L768 192L864 260L960 203L960 0L864 0L768 0L672 0L576 0L480 0L384 0L288 0L192 0L96 0L0 0Z" fill="#f5730a"></path><path d="M0 173L96 176L192 191L288 171L384 221L480 181L576 157L672 175L768 172L864 204L960 229L960 0L864 0L768 0L672 0L576 0L480 0L384 0L288 0L192 0L96 0L0 0Z" fill="#c74c08"></path><path d="M0 196L96 156L192 171L288 127L384 122L480 201L576 127L672 189L768 141L864 185L960 122L960 0L864 0L768 0L672 0L576 0L480 0L384 0L288 0L192 0L96 0L0 0Z" fill="#992503"></path><path d="M0 130L96 135L192 115L288 121L384 138L480 130L576 97L672 141L768 139L864 132L960 100L960 0L864 0L768 0L672 0L576 0L480 0L384 0L288 0L192 0L96 0L0 0Z" fill="#871400"></path><path d="M0 128L96 105L192 84L288 125L384 84L480 89L576 109L672 82L768 125L864 106L960 81L960 0L864 0L768 0L672 0L576 0L480 0L384 0L288 0L192 0L96 0L0 0Z" fill="#992503"></path><path d="M0 65L96 91L192 88L288 58L384 47L480 75L576 83L672 89L768 45L864 60L960 66L960 0L864 0L768 0L672 0L576 0L480 0L384 0L288 0L192 0L96 0L0 0Z" fill="#c74c08"></path><path d="M0 48L96 23L192 57L288 38L384 36L480 39L576 30L672 47L768 57L864 51L960 25L960 0L864 0L768 0L672 0L576 0L480 0L384 0L288 0L192 0L96 0L0 0Z" fill="#f5730a"></path></svg>