<svg id="visual" viewBox="0 0 960 540" width="960" height="540" xmlns="http://www.w3.org/2000/svg" xmlns:xlink="http://www.w3.org/1999/xlink" version="1.1"><path d="M0 55L14.5 56.8C29 58.7 58 62.3 87.2 58.7C116.3 55 145.7 44 174.8 38.5C204 33 233 33 262 32.2C291 31.3 320 29.7 349 33.3C378 37 407 46 436.2 47.8C465.3 49.7 494.7 44.3 523.8 43.5C553 42.7 582 46.3 611 53.5C640 60.7 669 71.3 698 74C727 76.7 756 71.3 785.2 66.8C814.3 62.3 843.7 58.7 872.8 60.5C902 62.3 931 69.7 945.5 73.3L960 77L960 0L945.5 0C931 0 902 0 872.8 0C843.7 0 814.3 0 785.2 0C756 0 727 0 698 0C669 0 640 0 611 0C582 0 553 0 523.8 0C494.7 0 465.3 0 436.2 0C407 0 378 0 349 0C320 0 291 0 262 0C233 0 204 0 174.8 0C145.7 0 116.3 0 87.2 0C58 0 29 0 14.5 0L0 0Z" fill="#ee96bf"></path><path d="M0 158L14.5 160.7C29 163.3 58 168.7 87.2 156.8C116.3 145 145.7 116 174.8 102.5C204 89 233 91 262 96.5C291 102 320 111 349 111.8C378 112.7 407 105.3 436.2 104.3C465.3 103.3 494.7 108.7 523.8 108.7C553 108.7 582 103.3 611 118.7C640 134 669 170 698 173.7C727 177.3 756 148.7 785.2 129.8C814.3 111 843.7 102 872.8 102C902 102 931 111 945.5 115.5L960 120L960 75L945.5 71.3C931 67.7 902 60.3 872.8 58.5C843.7 56.7 814.3 60.3 785.2 64.8C756 69.3 727 74.7 698 72C669 69.3 640 58.7 611 51.5C582 44.3 553 40.7 523.8 41.5C494.7 42.3 465.3 47.7 436.2 45.8C407 44 378 35 349 31.3C320 27.7 291 29.3 262 30.2C233 31 204 31 174.8 36.5C145.7 42 116.3 53 87.2 56.7C58 60.3 29 56.7 14.5 54.8L0 53Z" fill="#ea82b3"></path><path d="M0 185L14.5 191.2C29 197.3 58 209.7 87.2 198.8C116.3 188 145.7 154 174.8 139.7C204 125.3 233 130.7 262 137C291 143.3 320 150.7 349 155.2C378 159.7 407 161.3 436.2 163C465.3 164.7 494.7 166.3 523.8 165.5C553 164.7 582 161.3 611 174C640 186.7 669 215.3 698 218C727 220.7 756 197.3 785.2 183.8C814.3 170.3 843.7 166.7 872.8 164.8C902 163 931 163 945.5 163L960 163L960 118L945.5 113.5C931 109 902 100 872.8 100C843.7 100 814.3 109 785.2 127.8C756 146.7 727 175.3 698 171.7C669 168 640 132 611 116.7C582 101.3 553 106.7 523.8 106.7C494.7 106.7 465.3 101.3 436.2 102.3C407 103.3 378 110.7 349 109.8C320 109 291 100 262 94.5C233 89 204 87 174.8 100.5C145.7 114 116.3 143 87.2 154.8C58 166.7 29 161.3 14.5 158.7L0 156Z" fill="#e56ea7"></path><path d="M0 417L14.5 406.2C29 395.3 58 373.7 87.2 342.2C116.3 310.7 145.7 269.3 174.8 251.3C204 233.3 233 238.7 262 255.7C291 272.7 320 301.3 349 320.2C378 339 407 348 436.2 340C465.3 332 494.7 307 523.8 317C553 327 582 372 611 383.7C640 395.3 669 373.7 698 357.5C727 341.3 756 330.7 785.2 319C814.3 307.3 843.7 294.7 872.8 288.3C902 282 931 282 945.5 282L960 282L960 161L945.5 161C931 161 902 161 872.8 162.8C843.7 164.7 814.3 168.3 785.2 181.8C756 195.3 727 218.7 698 216C669 213.3 640 184.7 611 172C582 159.3 553 162.7 523.8 163.5C494.7 164.3 465.3 162.7 436.2 161C407 159.3 378 157.7 349 153.2C320 148.7 291 141.3 262 135C233 128.7 204 123.3 174.8 137.7C145.7 152 116.3 186 87.2 196.8C58 207.7 29 195.3 14.5 189.2L0 183Z" fill="#d85d98"></path><path d="M0 492L14.5 490.3C29 488.7 58 485.3 87.2 475.5C116.3 465.7 145.7 449.3 174.8 448.3C204 447.3 233 461.7 262 462.5C291 463.3 320 450.7 349 451.7C378 452.7 407 467.3 436.2 477.3C465.3 487.3 494.7 492.7 523.8 496.2C553 499.7 582 501.3 611 498.7C640 496 669 489 698 487.2C727 485.3 756 488.7 785.2 485.8C814.3 483 843.7 474 872.8 468.7C902 463.3 931 461.7 945.5 460.8L960 460L960 280L945.5 280C931 280 902 280 872.8 286.3C843.7 292.7 814.3 305.3 785.2 317C756 328.7 727 339.3 698 355.5C669 371.7 640 393.3 611 381.7C582 370 553 325 523.8 315C494.7 305 465.3 330 436.2 338C407 346 378 337 349 318.2C320 299.3 291 270.7 262 253.7C233 236.7 204 231.3 174.8 249.3C145.7 267.3 116.3 308.7 87.2 340.2C58 371.7 29 393.3 14.5 404.2L0 415Z" fill="#c15086"></path><path d="M0 541L14.5 541C29 541 58 541 87.2 541C116.3 541 145.7 541 174.8 541C204 541 233 541 262 541C291 541 320 541 349 541C378 541 407 541 436.2 541C465.3 541 494.7 541 523.8 541C553 541 582 541 611 541C640 541 669 541 698 541C727 541 756 541 785.2 541C814.3 541 843.7 541 872.8 541C902 541 931 541 945.5 541L960 541L960 458L945.5 458.8C931 459.7 902 461.3 872.8 466.7C843.7 472 814.3 481 785.2 483.8C756 486.7 727 483.3 698 485.2C669 487 640 494 611 496.7C582 499.3 553 497.7 523.8 494.2C494.7 490.7 465.3 485.3 436.2 475.3C407 465.3 378 450.7 349 449.7C320 448.7 291 461.3 262 460.5C233 459.7 204 445.3 174.8 446.3C145.7 447.3 116.3 463.7 87.2 473.5C58 483.3 29 486.7 14.5 488.3L0 490Z" fill="#ab4475"></path></svg>